# xmcd CD database file
#
# Track frame offsets:
#	150
#	38177
#	73474
#	110536
#	146975
#	173562
#
# Disc length: 2813 seconds
#
# Revision: 0
# Processed by: cddbd v1.5.2PL0 Copyright (c) Steve Scherf et al.
# Submitted via: CDex 1.51
#
DISCID=5a0afb06
DTITLE=Bollani - Gatto - Gershwin and more ... Live - CD2
DYEAR=2006
DGENRE=Jazz
TTITLE0=But Not For Me
TTITLE1=The Man I Love
TTITLE2=I Got Rhythm
TTITLE3=Summertime
TTITLE4=Il Ribaltone
TTITLE5=Body And Soul
EXTD=YEAR: 2006
EXTT0=
EXTT1=
EXTT2=
EXTT3=
EXTT4=
EXTT5=
PLAYORDER=
